<mxfile host="app.diagrams.net" modified="2020-12-18T05:33:24.994Z" agent="5.0 (Windows)" etag="N6iSiF1QamPdfLdKooY-" version="13.10.2" type="github">
  <diagram id="oNgz08ZcAJrUu3xDF3t5" name="Page-1">
    <mxGraphModel dx="868" dy="479" grid="1" gridSize="10" guides="1" tooltips="1" connect="1" arrows="1" fold="1" page="1" pageScale="1" pageWidth="827" pageHeight="1169" background="#283618" math="0" shadow="0">
      <root>
        <mxCell id="0" />
        <mxCell id="1" parent="0" />
        <mxCell id="gRKgHPdodO3kNjb9iB4v-22" value="" style="edgeStyle=orthogonalEdgeStyle;rounded=0;orthogonalLoop=1;jettySize=auto;html=1;strokeColor=#DDA15E;fontColor=#FEFAE0;labelBackgroundColor=#283618;" parent="1" source="gRKgHPdodO3kNjb9iB4v-10" target="gRKgHPdodO3kNjb9iB4v-21" edge="1">
          <mxGeometry relative="1" as="geometry" />
        </mxCell>
        <mxCell id="gRKgHPdodO3kNjb9iB4v-10" value="" style="whiteSpace=wrap;html=1;rounded=1;arcSize=5;fillColor=#BC6C25;strokeColor=#DDA15E;fontColor=#FEFAE0;" parent="1" vertex="1">
          <mxGeometry x="340" y="180" width="120" height="60" as="geometry" />
        </mxCell>
        <mxCell id="gRKgHPdodO3kNjb9iB4v-12" value="Member" style="text;html=1;strokeColor=none;fillColor=none;align=center;verticalAlign=middle;whiteSpace=wrap;rounded=0;fontColor=#FEFAE0;" parent="1" vertex="1">
          <mxGeometry x="380" y="200" width="40" height="20" as="geometry" />
        </mxCell>
        <mxCell id="gRKgHPdodO3kNjb9iB4v-19" value="" style="edgeStyle=orthogonalEdgeStyle;rounded=0;orthogonalLoop=1;jettySize=auto;html=1;strokeColor=#DDA15E;fontColor=#FEFAE0;labelBackgroundColor=#283618;" parent="1" source="gRKgHPdodO3kNjb9iB4v-15" target="gRKgHPdodO3kNjb9iB4v-18" edge="1">
          <mxGeometry relative="1" as="geometry" />
        </mxCell>
        <mxCell id="gRKgHPdodO3kNjb9iB4v-15" value="&lt;font style=&quot;font-size: 17px&quot;&gt;Log In&lt;/font&gt;" style="text;html=1;strokeColor=none;fillColor=none;align=center;verticalAlign=middle;whiteSpace=wrap;rounded=0;fontColor=#FEFAE0;" parent="1" vertex="1">
          <mxGeometry x="380" y="270" width="40" height="40" as="geometry" />
        </mxCell>
        <mxCell id="gRKgHPdodO3kNjb9iB4v-16" value="" style="edgeStyle=orthogonalEdgeStyle;rounded=0;orthogonalLoop=1;jettySize=auto;html=1;strokeColor=#DDA15E;fontColor=#FEFAE0;labelBackgroundColor=#283618;endArrow=none;endFill=0;" parent="1" source="gRKgHPdodO3kNjb9iB4v-10" target="gRKgHPdodO3kNjb9iB4v-15" edge="1">
          <mxGeometry relative="1" as="geometry">
            <mxPoint x="400" y="240" as="sourcePoint" />
            <mxPoint x="400" y="320" as="targetPoint" />
          </mxGeometry>
        </mxCell>
        <mxCell id="DaWMVSgpc6ToVBOJaDIt-7" style="edgeStyle=orthogonalEdgeStyle;curved=0;rounded=1;sketch=0;orthogonalLoop=1;jettySize=auto;html=1;strokeColor=#DDA15E;fillColor=#BC6C25;fontColor=#FEFAE0;endArrow=none;endFill=0;" edge="1" parent="1" source="gRKgHPdodO3kNjb9iB4v-18" target="gRKgHPdodO3kNjb9iB4v-29">
          <mxGeometry relative="1" as="geometry" />
        </mxCell>
        <mxCell id="DaWMVSgpc6ToVBOJaDIt-32" style="edgeStyle=orthogonalEdgeStyle;curved=0;rounded=1;sketch=0;orthogonalLoop=1;jettySize=auto;html=1;endArrow=none;endFill=0;strokeColor=#DDA15E;fillColor=#BC6C25;fontColor=#FEFAE0;" edge="1" parent="1" source="gRKgHPdodO3kNjb9iB4v-18">
          <mxGeometry relative="1" as="geometry">
            <mxPoint x="230" y="450" as="targetPoint" />
          </mxGeometry>
        </mxCell>
        <mxCell id="gRKgHPdodO3kNjb9iB4v-18" value="" style="whiteSpace=wrap;html=1;fillColor=#BC6C25;strokeColor=#DDA15E;fontColor=#FEFAE0;" parent="1" vertex="1">
          <mxGeometry x="340" y="380" width="120" height="60" as="geometry" />
        </mxCell>
        <mxCell id="gRKgHPdodO3kNjb9iB4v-20" value="Home page" style="text;html=1;strokeColor=none;fillColor=none;align=center;verticalAlign=middle;whiteSpace=wrap;rounded=0;fontColor=#FEFAE0;" parent="1" vertex="1">
          <mxGeometry x="370" y="400" width="60" height="20" as="geometry" />
        </mxCell>
        <mxCell id="gRKgHPdodO3kNjb9iB4v-24" style="edgeStyle=orthogonalEdgeStyle;rounded=0;orthogonalLoop=1;jettySize=auto;html=1;entryX=1;entryY=0.5;entryDx=0;entryDy=0;exitX=0.5;exitY=1;exitDx=0;exitDy=0;strokeColor=#DDA15E;fontColor=#FEFAE0;labelBackgroundColor=#283618;" parent="1" source="gRKgHPdodO3kNjb9iB4v-21" target="gRKgHPdodO3kNjb9iB4v-15" edge="1">
          <mxGeometry relative="1" as="geometry" />
        </mxCell>
        <mxCell id="gRKgHPdodO3kNjb9iB4v-21" value="" style="whiteSpace=wrap;html=1;rounded=1;arcSize=5;fillColor=#BC6C25;strokeColor=#DDA15E;fontColor=#FEFAE0;" parent="1" vertex="1">
          <mxGeometry x="540" y="180" width="120" height="60" as="geometry" />
        </mxCell>
        <mxCell id="gRKgHPdodO3kNjb9iB4v-23" value="SIgn Up" style="text;html=1;strokeColor=none;fillColor=none;align=center;verticalAlign=middle;whiteSpace=wrap;rounded=0;fontColor=#FEFAE0;" parent="1" vertex="1">
          <mxGeometry x="560" y="200" width="80" height="20" as="geometry" />
        </mxCell>
        <mxCell id="DaWMVSgpc6ToVBOJaDIt-33" style="edgeStyle=orthogonalEdgeStyle;curved=0;rounded=1;sketch=0;orthogonalLoop=1;jettySize=auto;html=1;entryX=0.5;entryY=0;entryDx=0;entryDy=0;endArrow=classic;endFill=1;strokeColor=#DDA15E;fillColor=#BC6C25;fontColor=#FEFAE0;" edge="1" parent="1" target="gRKgHPdodO3kNjb9iB4v-27">
          <mxGeometry relative="1" as="geometry">
            <mxPoint x="230" y="530" as="sourcePoint" />
          </mxGeometry>
        </mxCell>
        <mxCell id="gRKgHPdodO3kNjb9iB4v-25" value="&lt;font style=&quot;font-size: 17px&quot;&gt;Choosing manually in the Catergory&lt;br&gt;&lt;/font&gt;" style="text;html=1;strokeColor=none;fillColor=none;align=center;verticalAlign=middle;whiteSpace=wrap;rounded=0;fontColor=#FEFAE0;" parent="1" vertex="1">
          <mxGeometry x="210" y="470" width="40" height="40" as="geometry" />
        </mxCell>
        <mxCell id="DaWMVSgpc6ToVBOJaDIt-22" style="edgeStyle=orthogonalEdgeStyle;curved=0;rounded=1;sketch=0;orthogonalLoop=1;jettySize=auto;html=1;entryX=0.5;entryY=0;entryDx=0;entryDy=0;endArrow=none;endFill=0;strokeColor=#DDA15E;fillColor=#BC6C25;fontColor=#FEFAE0;" edge="1" parent="1" source="gRKgHPdodO3kNjb9iB4v-27" target="DaWMVSgpc6ToVBOJaDIt-1">
          <mxGeometry relative="1" as="geometry" />
        </mxCell>
        <mxCell id="gRKgHPdodO3kNjb9iB4v-27" value="&lt;div&gt;Reservation Form &lt;br&gt;&lt;/div&gt;" style="whiteSpace=wrap;html=1;fillColor=#BC6C25;strokeColor=#DDA15E;fontColor=#FEFAE0;" parent="1" vertex="1">
          <mxGeometry x="170" y="630" width="120" height="60" as="geometry" />
        </mxCell>
        <mxCell id="gRKgHPdodO3kNjb9iB4v-51" style="edgeStyle=orthogonalEdgeStyle;rounded=0;orthogonalLoop=1;jettySize=auto;html=1;entryX=1;entryY=0.5;entryDx=0;entryDy=0;strokeColor=#DDA15E;fontColor=#FEFAE0;labelBackgroundColor=#283618;" parent="1" source="gRKgHPdodO3kNjb9iB4v-31" target="gRKgHPdodO3kNjb9iB4v-42" edge="1">
          <mxGeometry relative="1" as="geometry" />
        </mxCell>
        <mxCell id="DaWMVSgpc6ToVBOJaDIt-30" style="edgeStyle=orthogonalEdgeStyle;curved=0;rounded=1;sketch=0;orthogonalLoop=1;jettySize=auto;html=1;entryX=1;entryY=0.5;entryDx=0;entryDy=0;endArrow=classic;endFill=1;strokeColor=#DDA15E;fillColor=#BC6C25;fontColor=#FEFAE0;" edge="1" parent="1" source="gRKgHPdodO3kNjb9iB4v-31" target="gRKgHPdodO3kNjb9iB4v-27">
          <mxGeometry relative="1" as="geometry">
            <Array as="points">
              <mxPoint x="400" y="660" />
              <mxPoint x="400" y="660" />
            </Array>
          </mxGeometry>
        </mxCell>
        <mxCell id="gRKgHPdodO3kNjb9iB4v-31" value="Package Deal Description" style="whiteSpace=wrap;html=1;fillColor=#BC6C25;strokeColor=#DDA15E;fontColor=#FEFAE0;" parent="1" vertex="1">
          <mxGeometry x="500" y="640" width="120" height="60" as="geometry" />
        </mxCell>
        <mxCell id="DaWMVSgpc6ToVBOJaDIt-27" style="edgeStyle=orthogonalEdgeStyle;curved=0;rounded=1;sketch=0;orthogonalLoop=1;jettySize=auto;html=1;endArrow=none;endFill=0;strokeColor=#DDA15E;fillColor=#BC6C25;fontColor=#FEFAE0;" edge="1" parent="1" source="gRKgHPdodO3kNjb9iB4v-42">
          <mxGeometry relative="1" as="geometry">
            <mxPoint x="90" y="660" as="targetPoint" />
            <Array as="points">
              <mxPoint x="474" y="1070" />
              <mxPoint x="90" y="1070" />
            </Array>
          </mxGeometry>
        </mxCell>
        <mxCell id="gRKgHPdodO3kNjb9iB4v-42" value="Reciept" style="whiteSpace=wrap;html=1;fillColor=#BC6C25;strokeColor=#DDA15E;fontColor=#FEFAE0;" parent="1" vertex="1">
          <mxGeometry x="414" y="970" width="120" height="60" as="geometry" />
        </mxCell>
        <mxCell id="DaWMVSgpc6ToVBOJaDIt-24" style="edgeStyle=orthogonalEdgeStyle;curved=0;rounded=1;sketch=0;orthogonalLoop=1;jettySize=auto;html=1;entryX=0;entryY=0.5;entryDx=0;entryDy=0;endArrow=none;endFill=0;strokeColor=#DDA15E;fillColor=#BC6C25;fontColor=#FEFAE0;" edge="1" parent="1" source="DaWMVSgpc6ToVBOJaDIt-1" target="gRKgHPdodO3kNjb9iB4v-42">
          <mxGeometry relative="1" as="geometry">
            <Array as="points">
              <mxPoint x="230" y="1000" />
            </Array>
          </mxGeometry>
        </mxCell>
        <mxCell id="DaWMVSgpc6ToVBOJaDIt-1" value="Reviewing of the user choice&lt;font style=&quot;font-size: 17px&quot;&gt;&lt;br&gt;&lt;/font&gt;" style="text;html=1;strokeColor=none;fillColor=none;align=center;verticalAlign=middle;whiteSpace=wrap;rounded=0;fontColor=#FEFAE0;" vertex="1" parent="1">
          <mxGeometry x="190" y="790" width="80" height="80" as="geometry" />
        </mxCell>
        <mxCell id="DaWMVSgpc6ToVBOJaDIt-25" style="edgeStyle=orthogonalEdgeStyle;curved=0;rounded=1;sketch=0;orthogonalLoop=1;jettySize=auto;html=1;endArrow=classic;endFill=1;strokeColor=#DDA15E;fillColor=#BC6C25;fontColor=#FEFAE0;" edge="1" parent="1" source="gRKgHPdodO3kNjb9iB4v-29" target="gRKgHPdodO3kNjb9iB4v-31">
          <mxGeometry relative="1" as="geometry" />
        </mxCell>
        <mxCell id="gRKgHPdodO3kNjb9iB4v-29" value="&lt;font style=&quot;font-size: 17px&quot;&gt;Viewing of Package Deal&lt;br&gt;&lt;/font&gt;" style="text;html=1;strokeColor=none;fillColor=none;align=center;verticalAlign=middle;whiteSpace=wrap;rounded=0;fontColor=#FEFAE0;" parent="1" vertex="1">
          <mxGeometry x="530" y="450" width="60" height="60" as="geometry" />
        </mxCell>
        <mxCell id="DaWMVSgpc6ToVBOJaDIt-28" value="Log out" style="text;html=1;strokeColor=none;fillColor=none;align=center;verticalAlign=middle;whiteSpace=wrap;rounded=0;sketch=0;fontColor=#FEFAE0;" vertex="1" parent="1">
          <mxGeometry x="70" y="640" width="40" height="20" as="geometry" />
        </mxCell>
      </root>
    </mxGraphModel>
  </diagram>
</mxfile>
